<?xml version="1.0" encoding="UTF-8"?>
<!DOCTYPE svg PUBLIC "-//W3C//DTD SVG 1.1//EN" "http://www.w3.org/Graphics/SVG/1.1/DTD/svg11.dtd">
<svg xmlns="http://www.w3.org/2000/svg" version="1.1" width="1199px" height="305px" style="shape-rendering:geometricPrecision; text-rendering:geometricPrecision; image-rendering:optimizeQuality; fill-rule:evenodd; clip-rule:evenodd" xmlns:xlink="http://www.w3.org/1999/xlink">
<g><path style="opacity:0.946" fill="#91bd1d" d="M 95.5,65.5 C 112.837,65.3334 130.17,65.5001 147.5,66C 158.874,66.2124 169.041,69.7124 178,76.5C 186.024,89.5248 184.524,101.358 173.5,112C 170.618,113.608 167.618,114.941 164.5,116C 180.232,123.166 185.065,134.999 179,151.5C 174.711,160.454 167.877,166.621 158.5,170C 146.457,173.633 134.124,175.466 121.5,175.5C 108.175,174.808 94.8418,174.308 81.5,174C 78.9911,169.472 79.1578,164.972 82,160.5C 86.8546,156.891 92.3546,155.224 98.5,155.5C 100.845,131.75 103.845,108.084 107.5,84.5C 90.7042,81.8725 81.3709,88.8725 79.5,105.5C 67.4003,108.307 61.0669,103.641 60.5,91.5C 60.1473,82.0396 64.1473,75.2062 72.5,71C 80.1184,68.4475 87.7851,66.6142 95.5,65.5 Z M 132.5,84.5 C 139.85,84.5172 146.85,86.0172 153.5,89C 157.77,93.881 158.603,99.381 156,105.5C 155.215,107.286 154.049,108.786 152.5,110C 146.798,111.904 140.965,113.071 135,113.5C 134.171,118.137 133.671,122.804 133.5,127.5C 140.493,127.19 146.659,129.19 152,133.5C 156.243,142.359 154.077,149.192 145.5,154C 137.892,156.438 130.226,156.772 122.5,155C 126.116,131.574 129.45,108.074 132.5,84.5 Z"/></g>
<g><path style="opacity:0.896" fill="#91bd1d" d="M 274.5,82.5 C 285.516,84.5622 288.516,90.5622 283.5,100.5C 279.195,104.274 274.195,105.44 268.5,104C 262.911,101.549 261.078,97.3826 263,91.5C 264.996,85.9894 268.829,82.9894 274.5,82.5 Z"/></g>
<g><path style="opacity:0.899" fill="#91bd1d" d="M 644.5,82.5 C 654.217,83.5781 657.717,88.9114 655,98.5C 650.754,103.916 645.254,105.749 638.5,104C 635.943,103.315 634.109,101.815 633,99.5C 631.161,89.8585 634.995,84.1918 644.5,82.5 Z"/></g>
<g><path style="opacity:0.925" fill="#91bd1d" d="M 730.5,84.5 C 736.233,83.8951 741.566,85.0617 746.5,88C 747.701,88.9025 748.535,90.0692 749,91.5C 748.156,108.247 746.323,124.914 743.5,141.5C 743.833,142.167 744.167,142.833 744.5,143.5C 748.094,142.574 751.76,142.241 755.5,142.5C 758.016,124.965 768.016,114.798 785.5,112C 793.825,110.663 801.325,112.496 808,117.5C 814.203,131.604 810.037,141.437 795.5,147C 789.642,148.921 783.642,150.087 777.5,150.5C 776.845,154.355 778.179,157.188 781.5,159C 790.094,160.393 797.927,158.56 805,153.5C 811.835,158.206 812.335,163.706 806.5,170C 796.564,175.518 785.897,177.518 774.5,176C 761.511,174.22 754.844,166.72 754.5,153.5C 750.355,153.33 746.355,153.997 742.5,155.5C 741.608,161.711 740.608,167.877 739.5,174C 720.454,179.289 714.121,172.622 720.5,154C 713.348,152.365 711.348,148.365 714.5,142C 716.847,141.666 719.181,141.833 721.5,142.5C 722.153,138.111 722.653,133.777 723,129.5C 718.776,133.697 713.942,137.03 708.5,139.5C 707.035,137.401 705.701,135.234 704.5,133C 711.759,128.109 718.592,122.609 725,116.5C 726.421,105.712 728.254,95.0455 730.5,84.5 Z M 786.5,126.5 C 791.924,127.017 793.424,129.684 791,134.5C 787.138,138.01 782.638,139.51 777.5,139C 778.465,133.191 781.465,129.024 786.5,126.5 Z"/></g>
<g><path style="opacity:0.868" fill="#91bd1d" d="M 937.5,87.5 C 939.857,87.3367 942.19,87.5034 944.5,88C 942.086,112.919 939.086,137.919 935.5,163C 935.585,164.107 935.919,165.107 936.5,166C 939.514,166.128 942.514,166.128 945.5,166C 947.652,170.873 945.985,173.54 940.5,174C 937.167,174.667 933.833,174.667 930.5,174C 927.212,172.642 925.712,170.142 926,166.5C 917.404,174.816 907.57,176.649 896.5,172C 892.399,169.228 889.899,165.395 889,160.5C 886.098,143.535 890.932,129.368 903.5,118C 912.613,112.756 921.946,112.256 931.5,116.5C 932.502,108.484 933.669,100.484 935,92.5C 935.366,90.5483 936.199,88.8816 937.5,87.5 Z M 915.5,121.5 C 918.518,121.335 921.518,121.502 924.5,122C 927.008,122.115 929.008,123.115 930.5,125C 928.87,136.539 927.037,148.039 925,159.5C 918.755,166.813 911.255,168.646 902.5,165C 897.713,155.121 897.213,144.955 901,134.5C 903.571,127.491 908.405,123.157 915.5,121.5 Z"/></g>
<g><path style="opacity:0.925" fill="#91bd1d" d="M 690.5,105.5 C 694.605,105.234 698.605,105.734 702.5,107C 707.827,110.436 708.827,114.936 705.5,120.5C 702.152,120.069 698.819,120.569 695.5,122C 694.919,122.893 694.585,123.893 694.5,125C 698.131,133.096 701.631,141.263 705,149.5C 707.927,161.053 704.094,169.553 693.5,175C 683.817,179.635 674.15,179.635 664.5,175C 656.109,165.481 656.776,156.481 666.5,148C 670.167,145.833 673.833,143.667 677.5,141.5C 672.5,133.306 671.333,124.639 674,115.5C 678.369,110.235 683.869,106.902 690.5,105.5 Z M 679.5,150.5 C 681.776,150.756 682.943,152.09 683,154.5C 684.458,158.781 683.292,161.947 679.5,164C 676.438,164.741 673.438,164.575 670.5,163.5C 669.276,161.102 669.442,158.769 671,156.5C 673.736,154.248 676.569,152.248 679.5,150.5 Z"/></g>
<g><path style="opacity:0.921" fill="#91bd1d" d="M 232.5,111.5 C 244.656,112.979 247.656,119.146 241.5,130C 238.901,130.769 236.401,130.602 234,129.5C 226.664,131.151 221.331,135.484 218,142.5C 216.529,153.12 214.696,163.62 212.5,174C 206.591,175.64 200.924,175.307 195.5,173C 194.299,172.097 193.465,170.931 193,169.5C 193.73,155.443 195.23,141.443 197.5,127.5C 190.328,128.51 187.828,125.51 190,118.5C 190.833,116.333 192.333,114.833 194.5,114C 201.753,112.443 209.086,112.11 216.5,113C 218.947,115.57 220.113,118.737 220,122.5C 222.537,116.785 226.704,113.118 232.5,111.5 Z"/></g>
<g><path style="opacity:0.929" fill="#91bd1d" d="M 335.5,111.5 C 353.748,109.581 360.915,117.581 357,135.5C 355.175,144.457 353.675,153.457 352.5,162.5C 355.786,162.071 358.953,162.071 362,162.5C 365.028,170.598 362.195,175.431 353.5,177C 347.762,178.275 342.096,178.275 336.5,177C 332.162,174.667 329.828,171 329.5,166C 331.5,154.667 333.5,143.334 335.5,132C 335.441,130.564 335.108,129.231 334.5,128C 328.394,126.413 323.228,127.913 319,132.5C 317.278,146.223 315.278,159.889 313,173.5C 307.018,175.583 301.185,175.416 295.5,173C 293.147,170.867 292.147,168.2 292.5,165C 294.209,152.496 295.875,139.996 297.5,127.5C 290.497,128.327 287.997,125.327 290,118.5C 290.833,116.333 292.333,114.833 294.5,114C 301.753,112.443 309.086,112.11 316.5,113C 317.416,113.374 318.25,113.874 319,114.5C 319.333,116.5 319.667,118.5 320,120.5C 324.29,115.779 329.457,112.779 335.5,111.5 Z"/></g>
<g><path style="opacity:0.933" fill="#91bd1d" d="M 420.5,111.5 C 425.049,111.609 429.382,112.609 433.5,114.5C 433.833,115.5 434.167,116.5 434.5,117.5C 430.502,137.983 428.335,158.649 428,179.5C 424.791,192.374 416.624,200.207 403.5,203C 392.599,205.485 381.932,204.819 371.5,201C 364.501,196.351 362.001,189.851 364,181.5C 367.722,174.541 373.555,170.374 381.5,169C 375.06,166.227 371.226,161.394 370,154.5C 368.399,140.302 372.566,128.135 382.5,118C 390.4,112.788 399.067,111.121 408.5,113C 410.848,113.346 412.681,114.513 414,116.5C 415.272,113.508 417.438,111.841 420.5,111.5 Z M 404.5,126.5 C 406.764,127.219 409.097,127.552 411.5,127.5C 410.419,136.904 408.919,146.237 407,155.5C 403.704,157.304 400.204,157.804 396.5,157C 394.333,156.167 392.833,154.667 392,152.5C 390.055,143.437 392.222,135.603 398.5,129C 400.611,128.155 402.611,127.322 404.5,126.5 Z M 405.5,169.5 C 409.265,181.588 404.765,188.255 392,189.5C 383.839,189.379 381.672,185.879 385.5,179C 389.068,177.382 392.735,176.049 396.5,175C 399.898,173.643 402.898,171.81 405.5,169.5 Z"/></g>
<g><path style="opacity:0.93" fill="#91bd1d" d="M 486.5,111.5 C 494.664,110.242 501.497,112.575 507,118.5C 507.333,119.833 507.667,121.167 508,122.5C 513,115.165 520,111.499 529,111.5C 540.581,111.081 546.081,116.581 545.5,128C 544.156,139.55 542.49,151.05 540.5,162.5C 543.763,161.862 546.929,161.862 550,162.5C 553.028,170.598 550.195,175.431 541.5,177C 535.762,178.275 530.096,178.275 524.5,177C 520.162,174.667 517.828,171 517.5,166C 519.5,154.667 521.5,143.334 523.5,132C 523.441,130.564 523.108,129.231 522.5,128C 516.622,126.347 511.788,127.847 508,132.5C 506.402,146.295 504.235,159.962 501.5,173.5C 495.656,175.621 489.989,175.455 484.5,173C 482.083,170.521 481.083,167.521 481.5,164C 482.74,153.656 484.073,143.322 485.5,133C 486.417,128.752 484.75,126.919 480.5,127.5C 475.881,127.634 472.381,129.634 470,133.5C 468.434,146.936 466.434,160.269 464,173.5C 457.214,176.776 450.881,176.109 445,171.5C 444.015,169.634 443.515,167.634 443.5,165.5C 445.168,152.824 446.835,140.158 448.5,127.5C 441.818,128.175 439.318,125.175 441,118.5C 442.526,115.422 445.026,113.588 448.5,113C 454.833,112.333 461.167,112.333 467.5,113C 468.416,113.374 469.25,113.874 470,114.5C 470.333,116.833 470.667,119.167 471,121.5C 474.841,116.003 480.008,112.669 486.5,111.5 Z"/></g>
<g><path style="opacity:0.928" fill="#91bd1d" d="M 586.5,111.5 C 593.483,111.052 600.15,112.219 606.5,115C 612.22,119.884 614.053,126.05 612,133.5C 609.416,140.382 604.583,144.882 597.5,147C 591.19,148.639 584.857,150.139 578.5,151.5C 578.879,154.541 580.212,157.041 582.5,159C 591.326,160.626 599.326,158.793 606.5,153.5C 614.264,159.019 614.264,164.853 606.5,171C 592.594,177.774 578.594,178.107 564.5,172C 558.251,165.869 555.584,158.369 556.5,149.5C 556.548,128.802 566.548,116.135 586.5,111.5 Z M 587.5,126.5 C 593.023,126.562 594.856,129.229 593,134.5C 589.069,138.104 584.569,139.437 579.5,138.5C 580.229,133.122 582.896,129.122 587.5,126.5 Z"/></g>
<g><path style="opacity:0.923" fill="#91bd1d" d="M 859.5,111.5 C 871.117,112.059 874.617,117.725 870,128.5C 867.582,130.68 864.916,131.013 862,129.5C 859.141,130.173 856.308,131.007 853.5,132C 851,135.167 848.5,138.333 846,141.5C 844.169,152.139 842.336,162.806 840.5,173.5C 833.657,176.801 827.323,176.135 821.5,171.5C 820.735,169.705 820.068,167.872 819.5,166C 821.398,153.279 823.398,140.612 825.5,128C 822.905,127.774 820.405,127.274 818,126.5C 815.469,119.12 817.969,114.62 825.5,113C 831.5,112.333 837.5,112.333 843.5,113C 844.931,113.465 846.097,114.299 847,115.5C 847.253,118.2 847.253,120.867 847,123.5C 849.234,117.261 853.401,113.261 859.5,111.5 Z"/></g>
<g><path style="opacity:0.926" fill="#91bd1d" d="M 257.5,112.5 C 263.842,112.334 270.175,112.5 276.5,113C 279.383,114.432 280.717,116.765 280.5,120C 278.867,132.77 276.867,145.437 274.5,158C 275.43,158.991 276.596,159.491 278,159.5C 282.533,157.853 284.699,159.519 284.5,164.5C 283.677,170.154 280.343,173.321 274.5,174C 267.268,176.468 260.434,175.635 254,171.5C 252.767,169.134 251.934,166.634 251.5,164C 253.232,151.777 255.232,139.611 257.5,127.5C 249.492,127.683 247.325,124.016 251,116.5C 253.013,114.752 255.18,113.418 257.5,112.5 Z"/></g>
<g><path style="opacity:0.927" fill="#91bd1d" d="M 627.5,112.5 C 633.842,112.334 640.175,112.5 646.5,113C 647.667,114.167 648.833,115.333 650,116.5C 649.106,130.092 647.273,143.592 644.5,157C 644.645,157.772 644.978,158.439 645.5,159C 647.898,159.374 650.231,159.374 652.5,159C 655.941,165.01 654.608,169.676 648.5,173C 640.719,175.469 633.052,175.469 625.5,173C 621.872,169.169 620.705,164.669 622,159.5C 623.404,149.076 625.237,138.742 627.5,128.5C 620.069,128.322 617.569,124.655 620,117.5C 622.17,115.177 624.67,113.51 627.5,112.5 Z"/></g>
<g><path style="opacity:0.854" fill="#91bd1d" d="M 982.5,113.5 C 988.834,113.067 994.834,114.234 1000.5,117C 1007.69,126.52 1006.69,135.186 997.5,143C 994.343,144.578 991.009,145.578 987.5,146C 979.709,146.385 972.042,146.551 964.5,146.5C 964.242,163.071 972.242,169.571 988.5,166C 992.011,165.33 995.344,164.163 998.5,162.5C 1001.14,163.741 1001.98,165.741 1001,168.5C 999.442,170.359 997.609,171.859 995.5,173C 963.781,180.613 950.948,168.447 957,136.5C 961.018,123.639 969.518,115.973 982.5,113.5 Z M 981.5,121.5 C 986.408,120.874 990.908,121.874 995,124.5C 997.481,133.712 993.981,138.545 984.5,139C 978.472,139.641 972.472,139.474 966.5,138.5C 968.354,129.983 973.354,124.316 981.5,121.5 Z"/></g>
<g><path style="opacity:0.134" fill="#1e1f1f" d="M 1031.5,112.5 C 1031.5,112.833 1031.5,113.167 1031.5,113.5C 1031.5,151.833 1031.5,190.167 1031.5,228.5C 1063.5,229.833 1095.5,229.833 1127.5,228.5C 1127.5,189.833 1127.5,151.167 1127.5,112.5C 1128.17,151.706 1128.84,191.039 1129.5,230.5C 1128.62,231.971 1127.29,232.804 1125.5,233C 1093.5,233.667 1061.5,233.667 1029.5,233C 1028.87,232.25 1028.37,231.416 1028,230.5C 1027.33,192.833 1027.33,155.167 1028,117.5C 1028.33,115.833 1028.67,114.167 1029,112.5C 1029.77,111.402 1030.6,111.402 1031.5,112.5 Z"/></g>
<g><path style="opacity:1" fill="#0845a8" d="M 1031.5,113.5 C 1063.17,113.5 1094.83,113.5 1126.5,113.5C 1126.5,151.167 1126.5,188.833 1126.5,226.5C 1126.17,226.5 1125.83,226.5 1125.5,226.5C 1125.5,189.5 1125.5,152.5 1125.5,115.5C 1094.83,115.5 1064.17,115.5 1033.5,115.5C 1033.5,152.5 1033.5,189.5 1033.5,226.5C 1032.83,227.167 1032.17,227.833 1031.5,228.5C 1031.5,190.167 1031.5,151.833 1031.5,113.5 Z"/></g>
<g><path style="opacity:0.83" fill="#91bd1d" d="M 867.5,160.5 C 876.955,161.031 878.955,165.197 873.5,173C 863.841,176.264 860.341,173.097 863,163.5C 864.409,162.219 865.909,161.219 867.5,160.5 Z"/></g>
<g><path style="opacity:1" fill="#5c9bd8" d="M 1031.5,113.5 C 1031.5,113.167 1031.5,112.833 1031.5,112.5C 1063.5,112.5 1095.5,112.5 1127.5,112.5C 1127.5,151.167 1127.5,189.833 1127.5,228.5C 1126.66,228.158 1126.33,227.492 1126.5,226.5C 1126.5,188.833 1126.5,151.167 1126.5,113.5C 1094.83,113.5 1063.17,113.5 1031.5,113.5 Z"/></g>
<g><path style="opacity:1" fill="#c5aa05" d="M 1125.5,226.5 C 1125.17,226.5 1124.83,226.5 1124.5,226.5C 1094.17,227.833 1063.83,227.833 1033.5,226.5C 1033.5,189.5 1033.5,152.5 1033.5,115.5C 1064.17,115.5 1094.83,115.5 1125.5,115.5C 1125.5,152.5 1125.5,189.5 1125.5,226.5 Z"/></g>
<g><path style="opacity:1" fill="#f9df0c" d="M 1037.5,116.5 C 1037.61,117.117 1037.94,117.617 1038.5,118C 1066.5,118.5 1094.5,118.667 1122.5,118.5C 1122.33,153.502 1122.5,188.502 1123,223.5C 1123.5,187.835 1123.67,152.168 1123.5,116.5C 1124.5,152.996 1124.83,189.663 1124.5,226.5C 1095.26,224.566 1065.93,223.899 1036.5,224.5C 1037.16,188.445 1036.49,152.612 1034.5,117C 1035.45,116.517 1036.45,116.351 1037.5,116.5 Z"/></g>
<g><path style="opacity:1" fill="#0a4a8f" d="M 1044.5,155.5 C 1050.45,159.304 1056.61,163.637 1063,168.5C 1064.11,167.288 1064.61,167.621 1064.5,169.5C 1080.99,170.497 1097.66,170.83 1114.5,170.5C 1098.01,171.497 1081.34,171.83 1064.5,171.5C 1064.5,173.833 1064.5,176.167 1064.5,178.5C 1081.17,178.5 1097.83,178.5 1114.5,178.5C 1114.5,184.5 1114.5,190.5 1114.5,196.5C 1091.17,196.5 1067.83,196.5 1044.5,196.5C 1044.5,182.833 1044.5,169.167 1044.5,155.5 Z"/></g>
<g><path style="opacity:1" fill="#054fbb" d="M 1064.5,152.5 C 1081.17,152.5 1097.83,152.5 1114.5,152.5C 1114.5,158.5 1114.5,164.5 1114.5,170.5C 1097.66,170.83 1080.99,170.497 1064.5,169.5C 1080.5,169.5 1096.5,169.5 1112.5,169.5C 1112.5,164.167 1112.5,158.833 1112.5,153.5C 1096.32,153.83 1080.32,153.496 1064.5,152.5 Z"/></g>
<g><path style="opacity:1" fill="#065ba5" d="M 1043.5,126.5 C 1043.5,126.167 1043.5,125.833 1043.5,125.5C 1067.17,125.5 1090.83,125.5 1114.5,125.5C 1114.5,132.167 1114.5,138.833 1114.5,145.5C 1097.83,145.5 1081.17,145.5 1064.5,145.5C 1064.5,147.833 1064.5,150.167 1064.5,152.5C 1080.32,153.496 1096.32,153.83 1112.5,153.5C 1112.5,158.833 1112.5,164.167 1112.5,169.5C 1096.5,169.5 1080.5,169.5 1064.5,169.5C 1064.61,167.621 1064.11,167.288 1063,168.5C 1056.61,163.637 1050.45,159.304 1044.5,155.5C 1044.83,145.652 1044.49,135.986 1043.5,126.5 Z"/></g>
<g><path style="opacity:1" fill="#fff083" d="M 1037.5,116.5 C 1066.17,116.5 1094.83,116.5 1123.5,116.5C 1123.67,152.168 1123.5,187.835 1123,223.5C 1122.5,188.502 1122.33,153.502 1122.5,118.5C 1094.5,118.667 1066.5,118.5 1038.5,118C 1037.94,117.617 1037.61,117.117 1037.5,116.5 Z"/></g>
<g><path style="opacity:0.776" fill="#91bd1d" d="M 801.5,192.5 C 806.267,192.191 810.934,192.691 815.5,194C 819.714,198.2 820.548,203.034 818,208.5C 815.303,211.87 811.803,213.204 807.5,212.5C 807.5,216.5 807.5,220.5 807.5,224.5C 805.5,224.5 803.5,224.5 801.5,224.5C 801.5,213.833 801.5,203.167 801.5,192.5 Z M 806.5,198.5 C 808.435,197.291 810.435,197.458 812.5,199C 814.93,204.384 813.263,207.217 807.5,207.5C 807.81,204.287 807.477,201.287 806.5,198.5 Z"/></g>
<g><path style="opacity:0.711" fill="#91bd1d" d="M 857.5,194.5 C 859.5,194.5 861.5,194.5 863.5,194.5C 863.5,196.5 863.5,198.5 863.5,200.5C 865.5,200.5 867.5,200.5 869.5,200.5C 869.5,201.833 869.5,203.167 869.5,204.5C 867.5,204.5 865.5,204.5 863.5,204.5C 863.334,209.511 863.501,214.511 864,219.5C 865.458,220.747 866.958,220.747 868.5,219.5C 871.253,223.308 870.086,225.308 865,225.5C 862.594,225.297 860.594,224.297 859,222.5C 857.804,216.581 857.138,210.581 857,204.5C 855.442,205.345 854.442,204.679 854,202.5C 853.517,203.448 853.351,204.448 853.5,205.5C 851.533,205.261 849.699,205.594 848,206.5C 847.501,212.491 847.334,218.491 847.5,224.5C 845.5,224.5 843.5,224.5 841.5,224.5C 841.334,216.493 841.5,208.493 842,200.5C 847.045,199.815 852.211,199.815 857.5,200.5C 857.5,198.5 857.5,196.5 857.5,194.5 Z"/></g>
<g><path style="opacity:1" fill="#002ea1" d="M 1043.5,126.5 C 1044.49,135.986 1044.83,145.652 1044.5,155.5C 1044.5,169.167 1044.5,182.833 1044.5,196.5C 1067.83,196.5 1091.17,196.5 1114.5,196.5C 1114.5,196.833 1114.5,197.167 1114.5,197.5C 1090.83,197.5 1067.17,197.5 1043.5,197.5C 1043.5,173.833 1043.5,150.167 1043.5,126.5 Z"/></g>
<g><path style="opacity:1" fill="#56696b" d="M 1043.5,125.5 C 1043.5,125.833 1043.5,126.167 1043.5,126.5C 1043.5,150.167 1043.5,173.833 1043.5,197.5C 1067.17,197.5 1090.83,197.5 1114.5,197.5C 1090.67,198.498 1066.67,198.831 1042.5,198.5C 1042.17,173.994 1042.5,149.661 1043.5,125.5 Z"/></g>
<g><path style="opacity:0.766" fill="#91bd1d" d="M 832.5,224.5 C 832.44,223.957 832.107,223.624 831.5,223.5C 825.452,226.81 821.452,225.144 819.5,218.5C 819.833,215.99 820.833,213.823 822.5,212C 825.513,211.498 828.513,210.998 831.5,210.5C 831.739,208.533 831.406,206.699 830.5,205C 827.407,204.93 824.407,205.264 821.5,206C 821.799,204.68 821.966,203.18 822,201.5C 826.99,198.538 831.656,198.872 836,202.5C 836.273,209.867 836.773,217.2 837.5,224.5C 835.833,224.5 834.167,224.5 832.5,224.5 Z M 825.5,215.5 C 827.5,215.5 829.5,215.5 831.5,215.5C 831.985,220.159 830.152,221.492 826,219.5C 825.51,218.207 825.343,216.873 825.5,215.5 Z"/></g>
<g><path style="opacity:0.748" fill="#91bd1d" d="M 874.5,199.5 C 877.677,200.677 880.843,200.677 884,199.5C 887.721,199.221 890.055,200.888 891,204.5C 891.5,211.158 891.666,217.825 891.5,224.5C 889.5,224.5 887.5,224.5 885.5,224.5C 885.666,218.158 885.5,211.825 885,205.5C 883.204,204.233 881.371,204.233 879.5,205.5C 878.504,211.798 878.17,218.132 878.5,224.5C 876.833,224.5 875.167,224.5 873.5,224.5C 873.198,216.082 873.531,207.748 874.5,199.5 Z"/></g>
<g><path style="opacity:0.737" fill="#91bd1d" d="M 901.5,199.5 C 911.013,199.113 915.013,203.78 913.5,213.5C 909.167,213.5 904.833,213.5 900.5,213.5C 900.401,217.636 902.401,219.969 906.5,220.5C 908.332,219.752 909.999,218.752 911.5,217.5C 912.357,218.736 913.023,220.069 913.5,221.5C 907.75,226.926 902.25,226.592 897,220.5C 892.737,212.126 894.237,205.126 901.5,199.5 Z M 902.5,204.5 C 904.167,204.5 905.833,204.5 907.5,204.5C 907.33,205.822 907.663,206.989 908.5,208C 905.833,208.667 903.167,208.667 900.5,208C 901.305,206.887 901.972,205.721 902.5,204.5 Z"/></g>
<g><path style="opacity:0.775" fill="#91bd1d" d="M 918.5,199.5 C 920.451,199.227 921.951,199.893 923,201.5C 924.789,199.771 926.956,199.104 929.5,199.5C 929.5,201.5 929.5,203.5 929.5,205.5C 927.208,205.244 925.041,205.577 923,206.5C 922.501,212.491 922.334,218.491 922.5,224.5C 920.833,224.5 919.167,224.5 917.5,224.5C 917.198,216.082 917.531,207.748 918.5,199.5 Z"/></g>
<g><path style="opacity:0.759" fill="#91bd1d" d="M 942.5,199.5 C 943.496,199.414 944.329,199.748 945,200.5C 946.368,205.324 948.035,209.991 950,214.5C 951.401,210.129 952.901,205.796 954.5,201.5C 956.341,200.77 958.175,200.103 960,199.5C 958.038,207.559 955.538,215.559 952.5,223.5C 950.5,224.833 948.5,224.833 946.5,223.5C 943.96,215.881 941.626,208.214 939.5,200.5C 940.791,200.737 941.791,200.404 942.5,199.5 Z"/></g>
<g><path style="opacity:0.782" fill="#91bd1d" d="M 968.5,199.5 C 975.231,198.448 979.731,201.114 982,207.5C 984.338,217.036 980.838,223.036 971.5,225.5C 961.753,222.133 958.586,215.466 962,205.5C 963.494,202.686 965.66,200.686 968.5,199.5 Z M 969.5,204.5 C 972.325,204.081 974.491,205.081 976,207.5C 976.667,210.5 976.667,213.5 976,216.5C 974.057,220.486 971.39,221.153 968,218.5C 965.653,213.448 966.153,208.781 969.5,204.5 Z"/></g>
<g><path style="opacity:0.745" fill="#91bd1d" d="M 986.5,199.5 C 988.451,199.227 989.951,199.893 991,201.5C 995.341,198.552 999.341,198.885 1003,202.5C 1003.5,209.826 1003.67,217.159 1003.5,224.5C 1001.83,224.5 1000.17,224.5 998.5,224.5C 998.666,218.158 998.5,211.825 998,205.5C 996.204,204.233 994.371,204.233 992.5,205.5C 991.504,211.798 991.17,218.132 991.5,224.5C 989.5,224.5 987.5,224.5 985.5,224.5C 985.198,216.082 985.531,207.748 986.5,199.5 Z"/></g>
<g><path style="opacity:1" fill="#767654" d="M 1054.5,205.5 C 1055.4,206.209 1055.74,207.209 1055.5,208.5C 1052.5,208.5 1049.5,208.5 1046.5,208.5C 1049.48,208.098 1052.14,207.098 1054.5,205.5 Z"/></g>
<g><path style="opacity:1" fill="#242d88" d="M 1054.5,205.5 C 1052.14,207.098 1049.48,208.098 1046.5,208.5C 1046.5,208.833 1046.5,209.167 1046.5,209.5C 1049.03,210.166 1051.69,210.832 1054.5,211.5C 1051.69,212.168 1049.03,212.834 1046.5,213.5C 1049.29,214.477 1052.29,214.81 1055.5,214.5C 1055.5,215.5 1055.5,216.5 1055.5,217.5C 1051.17,217.5 1046.83,217.5 1042.5,217.5C 1042.5,213.5 1042.5,209.5 1042.5,205.5C 1046.5,205.5 1050.5,205.5 1054.5,205.5 Z"/></g>
<g><path style="opacity:1" fill="#223287" d="M 1057.5,205.5 C 1061.91,205.021 1066.08,205.688 1070,207.5C 1072.36,211.546 1071.53,214.713 1067.5,217C 1064.18,217.498 1060.85,217.665 1057.5,217.5C 1057.5,213.5 1057.5,209.5 1057.5,205.5 Z"/></g>
<g><path style="opacity:1" fill="#f5e30f" d="M 1061.5,208.5 C 1066.67,207.492 1068.33,209.325 1066.5,214C 1064.87,214.494 1063.2,214.66 1061.5,214.5C 1061.5,212.5 1061.5,210.5 1061.5,208.5 Z"/></g>
<g><path style="opacity:1" fill="#23328d" d="M 1073.5,205.5 C 1077.55,205.176 1081.55,205.509 1085.5,206.5C 1082.91,207.48 1080.25,207.813 1077.5,207.5C 1077.5,208.5 1077.5,209.5 1077.5,210.5C 1088.09,210.864 1088.09,211.864 1077.5,213.5C 1080.09,214.48 1082.75,214.813 1085.5,214.5C 1085.5,215.5 1085.5,216.5 1085.5,217.5C 1081.5,217.5 1077.5,217.5 1073.5,217.5C 1073.5,213.5 1073.5,209.5 1073.5,205.5 Z"/></g>
<g><path style="opacity:1" fill="#293b8c" d="M 1088.5,205.5 C 1089.83,205.5 1091.17,205.5 1092.5,205.5C 1092.37,210.272 1093.7,210.438 1096.5,206C 1098.17,205.333 1099.83,205.333 1101.5,206C 1099.83,207.667 1098.17,209.333 1096.5,211C 1098.4,212.815 1100.07,214.815 1101.5,217C 1098.21,217.746 1095.71,216.58 1094,213.5C 1092.81,214.563 1092.31,215.897 1092.5,217.5C 1091.17,217.5 1089.83,217.5 1088.5,217.5C 1088.5,213.5 1088.5,209.5 1088.5,205.5 Z"/></g>
<g><path style="opacity:1" fill="#999445" d="M 1046.5,209.5 C 1049.5,209.5 1052.5,209.5 1055.5,209.5C 1055.5,210.833 1055.5,212.167 1055.5,213.5C 1052.5,213.5 1049.5,213.5 1046.5,213.5C 1049.03,212.834 1051.69,212.168 1054.5,211.5C 1051.69,210.832 1049.03,210.166 1046.5,209.5 Z"/></g>
<g><path style="opacity:1" fill="#1e3f94" d="M 1106.5,205.5 C 1108.92,205.192 1111.26,205.526 1113.5,206.5C 1114.71,210.122 1115.71,213.789 1116.5,217.5C 1114.54,216.871 1112.54,216.204 1110.5,215.5C 1108.16,216.182 1105.83,216.849 1103.5,217.5C 1104.5,213.5 1105.5,209.5 1106.5,205.5 Z"/></g>
<g><path style="opacity:1" fill="#e4d816" d="M 1109.5,208.5 C 1112.46,211.271 1112.13,212.271 1108.5,211.5C 1109.13,210.583 1109.46,209.583 1109.5,208.5 Z"/></g>
<g><path style="opacity:0.004" fill="#91bd1d" d="M 832.5,224.5 C 831.833,225.167 831.833,225.167 832.5,224.5 Z"/></g>
<g><path style="opacity:0.965" fill="#0b327b" d="M 1033.5,226.5 C 1063.83,227.833 1094.17,227.833 1124.5,226.5C 1124.83,226.5 1125.17,226.5 1125.5,226.5C 1125.83,226.5 1126.17,226.5 1126.5,226.5C 1126.33,227.492 1126.66,228.158 1127.5,228.5C 1095.5,229.833 1063.5,229.833 1031.5,228.5C 1032.17,227.833 1032.83,227.167 1033.5,226.5 Z"/></g>
</svg>
