<?xml version="1.0" encoding="utf-8"?>
<svg width="304.34784px" height="100px" viewBox="0 0 304.34784 100" version="1.1" xmlns:xlink="http://www.w3.org/1999/xlink" xmlns="http://www.w3.org/2000/svg">
  <defs>
    <path d="M0 0L304.348 0L304.348 100L0 100L0 0Z" id="path_1" />
    <clipPath id="clip_1">
      <use xlink:href="#path_1" />
    </clipPath>
  </defs>
  <g id="logo_kfc" clip-path="url(#clip_1)">
    <path d="M0 0L304.348 0L304.348 100L0 100L0 0Z" id="logo_kfc" fill="none" fill-rule="evenodd" stroke="none" />
    <path d="M257.229 77.4265C264.844 77.1039 272.374 75.5387 279.575 72.7804L275.508 92.1156C265.83 94.3778 255.972 95.5643 246.08 95.657C210.844 95.8565 195.683 75.8256 195.584 54.9974C195.492 27.1295 222.544 -0.635465 266.09 0.0110768C274.206 0.156446 282.264 1.5348 290.041 4.10773L284.281 26.972L281.36 26.972C279.003 23.7283 275.948 21.1908 272.475 19.5916C269.002 17.9923 265.223 17.3823 261.482 17.8176C239.453 17.8176 225.743 31.1659 225.836 49.0152C225.923 65.197 238.443 77.493 257.224 77.4148" id="Tvar" fill="#B1001F" stroke="none" />
    <path d="M129.928 0.959174L128.596 7.00165C129.467 7.051 130.321 7.2907 131.108 7.70678C131.895 8.12291 132.6 8.70722 133.182 9.42613C133.764 10.1451 134.212 10.9843 134.5 11.8957C134.787 12.807 134.909 13.7725 134.858 14.7362C134.806 15.5834 134.636 16.4172 134.356 17.2079L115.39 93.6265L153.367 93.6804L154.786 87.1069C153.048 86.7474 151.51 85.6404 150.508 84.0291C149.505 82.4178 149.12 80.433 149.436 78.5078C149.485 78.3509 149.485 78.1517 149.528 78.0004C149.659 77.3361 155.097 55.3352 155.097 55.3352L172.508 55.2935C174.654 55.0426 176.824 55.3722 178.83 56.253C180.837 57.1339 182.62 58.5396 184.027 60.3504L189.1 37.6307L159.809 37.6307L164.177 19.836L189.623 19.7814C194.286 19.7814 197.622 23.2196 197.622 25.8238L200.505 25.8238L206.123 0.989417L129.95 0.947374" id="Tvar" fill="#B1001F" stroke="none" />
    <path d="M101.139 80.0009C98.89 77.3665 79.3391 43.6917 79.3391 43.6917L115.078 12.0291C117.784 8.94752 121.476 7.16565 125.358 7.06796L126.767 0.953209L82.3526 0.995252L80.9822 7.03769C84.0018 7.24922 88.2435 10.2282 84.7713 13.7691C84.3617 14.2223 49.0817 44.0604 49.0817 44.0604L56.6709 13.6061C57.2083 11.8759 58.1735 10.3479 59.4574 9.19522C60.7413 8.04257 62.2917 7.31174 63.9322 7.08639L65.3022 1.04393L22.903 1.04393L21.5327 7.08639C23.2949 7.17887 24.9524 8.03987 26.1423 9.48139C27.3322 10.923 27.9578 12.8274 27.8822 14.7781C27.8217 15.631 27.6373 16.4678 27.3363 17.2558C13.1686 73.8435 14.8065 68.2848 13.8565 71.3722C9.9747 87.687 3.70708 86.853 1.46864 87.0465L0 93.6209L44.3757 93.6209L45.8826 86.9735C45.8826 86.9735 38.8451 85.4026 40.1718 79.7226C41.504 74.1639 47.0726 51.8548 47.0726 51.8548C52.8626 62.0135 59.1165 71.8396 65.81 81.2939C75.0913 95.403 84.957 93.5778 111.19 93.5778L112.648 87.0039C110.384 86.8026 108.185 86.0665 106.2 84.8448C104.214 83.623 102.489 81.9443 101.139 79.9222" id="Tvar" fill="#B1001F" stroke="none" />
    <path d="M293.656 1.81708C293.335 2.16498 293.083 2.58379 292.918 3.04592C292.753 3.50805 292.677 4.00303 292.695 4.49972C292.672 4.98797 292.747 5.47614 292.913 5.92919C293.079 6.38227 293.332 6.7897 293.656 7.12266C293.956 7.50287 294.328 7.80461 294.747 8.0063C295.165 8.20796 295.618 8.30443 296.074 8.28878C296.536 8.29013 296.992 8.18761 297.417 7.98709C297.841 7.78661 298.224 7.49235 298.542 7.12266C298.864 6.78818 299.116 6.3804 299.282 5.92771C299.448 5.47506 299.523 4.98771 299.503 4.49972C299.523 4.00277 299.448 3.50691 299.283 3.04444C299.117 2.58198 298.864 2.1636 298.542 1.81708C297.928 1.10304 297.084 0.686956 296.194 0.659778C295.304 0.632604 294.44 0.996994 293.792 1.67251L293.661 1.81708L293.656 1.81708L293.656 1.81708ZM298.919 7.58143C298.554 8.00682 298.113 8.34378 297.624 8.57056C297.136 8.79729 296.61 8.90907 296.08 8.89877C295.552 8.90412 295.029 8.79043 294.543 8.5639C294.057 8.33738 293.617 8.00274 293.252 7.58143C292.888 7.17739 292.6 6.69822 292.404 6.1704C292.208 5.64253 292.108 5.07697 292.111 4.50636C292.095 3.92389 292.188 3.34394 292.385 2.80324C292.581 2.26255 292.876 1.77267 293.252 1.36418C293.604 0.941903 294.035 0.610201 294.515 0.392027C294.995 0.173853 295.512 0.0745953 296.03 0.101412C297.088 0.10428 298.104 0.556232 298.87 1.36418C299.251 1.7559 299.551 2.23526 299.748 2.76858C299.946 3.30189 300.035 3.87621 300.011 4.4518C300.037 5.0291 299.954 5.60601 299.766 6.14531C299.578 6.68461 299.289 7.17387 298.919 7.58143L298.919 7.58143ZM298.909 2.99695C298.242 2.62635 297.495 2.49942 296.767 2.63395L295.266 2.63395L295.266 6.92177L296.818 6.92177C297.398 6.95641 297.979 6.87487 298.537 6.68038C298.846 6.54008 299.115 6.29442 299.307 5.97465C299.499 5.65488 299.605 5.2751 299.613 4.88381C299.621 4.52184 299.555 4.16276 299.424 3.83536C299.293 3.50794 299.099 3.22111 298.857 2.99695L298.909 2.99695L298.909 2.99695ZM296.391 1.99263C296.899 1.98155 297.405 2.05274 297.883 2.20359C298.162 2.29033 298.4 2.45718 298.558 2.67639C298.716 2.8956 298.785 3.15486 298.754 3.41251C298.782 3.60546 298.742 3.80108 298.638 3.97309C298.534 4.1451 298.372 4.28468 298.174 4.37286C297.941 4.53042 297.659 4.61925 297.365 4.62659C297.551 4.6259 297.734 4.66742 297.896 4.74685C298.058 4.82624 298.195 4.94129 298.291 5.08024C298.471 5.28294 298.573 5.53024 298.581 5.78685L298.581 6.19771C298.572 6.3151 298.594 6.4328 298.643 6.54215L298.643 6.85049L297.773 6.85049L297.773 6.19771C297.806 5.97993 297.776 5.75867 297.686 5.55376C297.595 5.34885 297.447 5.16711 297.255 5.02563C296.897 4.92676 296.524 4.87829 296.149 4.88107L295.403 4.88107L295.403 6.79588L294.415 6.79588L294.415 2.04721L296.391 1.99263L296.391 1.99263Z" id="Tvar" fill="#B1001F" fill-rule="evenodd" stroke="none" />
  </g>
</svg>